<svg width="1200" height="630" viewBox="0 0 1200 630" xmlns="http://www.w3.org/2000/svg">
  <!-- Background Gradient -->
  <defs>
    <linearGradient id="bgGrad6" x1="0%" y1="0%" x2="100%" y2="100%">
      <stop offset="0%" style="stop-color:#065f46;stop-opacity:1" />
      <stop offset="100%" style="stop-color:#7c2d12;stop-opacity:1" />
    </linearGradient>
    <linearGradient id="cardGrad6" x1="0%" y1="0%" x2="100%" y2="100%">
      <stop offset="0%" style="stop-color:#ffffff;stop-opacity:0.95" />
      <stop offset="100%" style="stop-color:#f8fafc;stop-opacity:0.9" />
    </linearGradient>
    <linearGradient id="moneyGrad" x1="0%" y1="0%" x2="100%" y2="100%">
      <stop offset="0%" style="stop-color:#fbbf24;stop-opacity:1" />
      <stop offset="100%" style="stop-color:#f59e0b;stop-opacity:1" />
    </linearGradient>
  </defs>
  
  <!-- Background -->
  <rect width="1200" height="630" fill="url(#bgGrad6)"/>
  
  <!-- Decorative Elements -->
  <circle cx="120" cy="80" r="40" fill="#ffffff" opacity="0.1"/>
  <circle cx="1080" cy="550" r="60" fill="#ffffff" opacity="0.08"/>
  <circle cx="200" cy="600" r="25" fill="#ffffff" opacity="0.12"/>
  
  <!-- Main Content Card -->
  <rect x="60" y="80" width="1080" height="470" rx="20" fill="url(#cardGrad6)" stroke="#e2e8f0" stroke-width="2"/>
  
  <!-- Money Symbol -->
  <circle cx="180" cy="180" r="40" fill="url(#moneyGrad)" stroke="#d97706" stroke-width="3"/>
  <text x="180" y="190" text-anchor="middle" font-family="Arial, sans-serif" font-size="24" font-weight="bold" fill="#7c2d12">₩</text>
  
  <!-- Growth Chart -->
  <rect x="260" y="140" width="120" height="80" rx="8" fill="#f8fafc" stroke="#e2e8f0" stroke-width="2"/>
  <path d="M 270 210 L 290 190 L 310 180 L 330 160 L 350 150 L 370 140" stroke="#22c55e" stroke-width="4" fill="none"/>
  <circle cx="270" cy="210" r="3" fill="#22c55e"/>
  <circle cx="290" cy="190" r="3" fill="#22c55e"/>
  <circle cx="310" cy="180" r="3" fill="#22c55e"/>
  <circle cx="330" cy="160" r="3" fill="#22c55e"/>
  <circle cx="350" cy="150" r="3" fill="#22c55e"/>
  <circle cx="370" cy="140" r="3" fill="#22c55e"/>
  
  <!-- Arrow -->
  <path d="M 400 180 L 460 180 M 450 170 L 460 180 L 450 190" stroke="#64748b" stroke-width="4" fill="none"/>
  
  <!-- Target Symbol -->
  <circle cx="500" cy="180" r="30" fill="#dc2626"/>
  <circle cx="500" cy="180" r="20" fill="#ffffff"/>
  <circle cx="500" cy="180" r="10" fill="#dc2626"/>
  <circle cx="500" cy="180" r="5" fill="#ffffff"/>
  
  <!-- Title -->
  <text x="580" y="140" font-family="Arial, sans-serif" font-size="42" font-weight="bold" fill="#1e293b">블로그 수익화 전략</text>
  <text x="580" y="190" font-family="Arial, sans-serif" font-size="36" font-weight="600" fill="#475569">월 1000만원 달성 로드맵</text>
  
  <!-- Features -->
  <circle cx="580" cy="260" r="4" fill="#22c55e"/>
  <text x="600" y="268" font-family="Arial, sans-serif" font-size="20" fill="#374151">체계적인 수익 구조</text>
  
  <circle cx="580" cy="290" r="4" fill="#22c55e"/>
  <text x="600" y="298" font-family="Arial, sans-serif" font-size="20" fill="#374151">실제 성공 사례</text>
  
  <circle cx="580" cy="320" r="4" fill="#22c55e"/>
  <text x="600" y="328" font-family="Arial, sans-serif" font-size="20" fill="#374151">단계별 실행 가이드</text>
  
  <!-- Blog Pro Badge -->
  <rect x="950" y="480" width="150" height="50" rx="25" fill="#065f46"/>
  <text x="1025" y="510" text-anchor="middle" font-family="Arial, sans-serif" font-size="18" font-weight="bold" fill="white">Blog Pro</text>
  
  <!-- Revenue Stats -->
  <rect x="580" y="380" width="480" height="80" rx="10" fill="#f0fdf4" stroke="#bbf7d0"/>
  <text x="600" y="405" font-family="Arial, sans-serif" font-size="16" font-weight="600" fill="#166534">검증된 수익화</text>
  <text x="600" y="430" font-family="Arial, sans-serif" font-size="24" font-weight="bold" fill="#15803d">월 1000만원 달성법</text>
  <text x="600" y="450" font-family="Arial, sans-serif" font-size="18" fill="#22c55e">체계적 전략 + 실행 방법</text>
  
  <!-- Money Icons -->
  <circle cx="850" cy="200" r="15" fill="url(#moneyGrad)"/>
  <text x="850" y="208" text-anchor="middle" font-family="Arial, sans-serif" font-size="10" font-weight="bold" fill="#7c2d12">₩</text>
  
  <circle cx="900" cy="170" r="12" fill="url(#moneyGrad)"/>
  <text x="900" y="176" text-anchor="middle" font-family="Arial, sans-serif" font-size="8" font-weight="bold" fill="#7c2d12">₩</text>
  
  <circle cx="950" cy="190" r="18" fill="url(#moneyGrad)"/>
  <text x="950" y="198" text-anchor="middle" font-family="Arial, sans-serif" font-size="12" font-weight="bold" fill="#7c2d12">₩</text>
</svg>