<svg width="1200" height="630" viewBox="0 0 1200 630" xmlns="http://www.w3.org/2000/svg">
  <!-- Background Gradient -->
  <defs>
    <linearGradient id="bgGrad3" x1="0%" y1="0%" x2="100%" y2="100%">
      <stop offset="0%" style="stop-color:#7c2d12;stop-opacity:1" />
      <stop offset="100%" style="stop-color:#1e40af;stop-opacity:1" />
    </linearGradient>
    <linearGradient id="cardGrad3" x1="0%" y1="0%" x2="100%" y2="100%">
      <stop offset="0%" style="stop-color:#ffffff;stop-opacity:0.95" />
      <stop offset="100%" style="stop-color:#f8fafc;stop-opacity:0.9" />
    </linearGradient>
  </defs>
  
  <!-- Background -->
  <rect width="1200" height="630" fill="url(#bgGrad3)"/>
  
  <!-- Decorative Elements -->
  <circle cx="120" cy="110" r="38" fill="#ffffff" opacity="0.1"/>
  <circle cx="1080" cy="520" r="58" fill="#ffffff" opacity="0.08"/>
  <circle cx="220" cy="570" r="22" fill="#ffffff" opacity="0.12"/>
  
  <!-- Main Content Card -->
  <rect x="60" y="80" width="1080" height="470" rx="20" fill="url(#cardGrad3)" stroke="#e2e8f0" stroke-width="2"/>
  
  <!-- Multiple Account Icons -->
  <circle cx="150" cy="180" r="25" fill="#ef4444"/>
  <text x="150" y="188" text-anchor="middle" font-family="Arial, sans-serif" font-size="14" font-weight="bold" fill="white">1</text>
  
  <circle cx="200" cy="180" r="25" fill="#f59e0b"/>
  <text x="200" y="188" text-anchor="middle" font-family="Arial, sans-serif" font-size="14" font-weight="bold" fill="white">2</text>
  
  <circle cx="250" cy="180" r="25" fill="#10b981"/>
  <text x="250" y="188" text-anchor="middle" font-family="Arial, sans-serif" font-size="14" font-weight="bold" fill="white">3</text>
  
  <circle cx="150" cy="230" r="25" fill="#3b82f6"/>
  <text x="150" y="238" text-anchor="middle" font-family="Arial, sans-serif" font-size="14" font-weight="bold" fill="white">4</text>
  
  <circle cx="200" cy="230" r="25" fill="#8b5cf6"/>
  <text x="200" y="238" text-anchor="middle" font-family="Arial, sans-serif" font-size="14" font-weight="bold" fill="white">5</text>
  
  <!-- Management System -->
  <rect x="320" y="160" width="120" height="100" rx="10" fill="#1e293b"/>
  <rect x="330" y="180" width="100" height="8" fill="#22c55e"/>
  <rect x="330" y="195" width="80" height="8" fill="#3b82f6"/>
  <rect x="330" y="210" width="90" height="8" fill="#f59e0b"/>
  <rect x="330" y="225" width="70" height="8" fill="#ef4444"/>
  <rect x="330" y="240" width="85" height="8" fill="#8b5cf6"/>
  <text x="380" y="175" text-anchor="middle" font-family="Arial, sans-serif" font-size="12" font-weight="bold" fill="white">통합 관리</text>
  
  <!-- Arrow -->
  <path d="M 470 210 L 530 210 M 520 200 L 530 210 L 520 220" stroke="#64748b" stroke-width="4" fill="none"/>
  
  <!-- Safety Shield -->
  <path d="M 550 180 L 570 180 L 570 200 L 580 210 L 570 220 L 570 240 L 550 240 Z" fill="#22c55e"/>
  <text x="565" y="215" text-anchor="middle" font-family="Arial, sans-serif" font-size="10" font-weight="bold" fill="white">안전</text>
  
  <!-- Title -->
  <text x="600" y="140" font-family="Arial, sans-serif" font-size="42" font-weight="bold" fill="#1e293b">멀티계정 블로그 관리</text>
  <text x="600" y="190" font-family="Arial, sans-serif" font-size="36" font-weight="600" fill="#475569">안전한 분산 전략</text>
  
  <!-- Features -->
  <circle cx="600" cy="260" r="4" fill="#22c55e"/>
  <text x="620" y="268" font-family="Arial, sans-serif" font-size="20" fill="#374151">5-10개 계정 최적화</text>
  
  <circle cx="600" cy="290" r="4" fill="#22c55e"/>
  <text x="620" y="298" font-family="Arial, sans-serif" font-size="20" fill="#374151">리스크 분산 관리</text>
  
  <circle cx="600" cy="320" r="4" fill="#22c55e"/>
  <text x="620" y="328" font-family="Arial, sans-serif" font-size="20" fill="#374151">400% 효율성 향상</text>
  
  <!-- Blog Pro Badge -->
  <rect x="950" y="480" width="150" height="50" rx="25" fill="#7c2d12"/>
  <text x="1025" y="510" text-anchor="middle" font-family="Arial, sans-serif" font-size="18" font-weight="bold" fill="white">Blog Pro</text>
  
  <!-- Performance Stats -->
  <rect x="600" y="380" width="480" height="80" rx="10" fill="#fef2f2" stroke="#fecaca"/>
  <text x="620" y="405" font-family="Arial, sans-serif" font-size="16" font-weight="600" fill="#991b1b">안전한 성과</text>
  <text x="620" y="430" font-family="Arial, sans-serif" font-size="24" font-weight="bold" fill="#dc2626">효율성 400% 증대</text>
  <text x="620" y="450" font-family="Arial, sans-serif" font-size="18" fill="#ef4444">리스크 최소화 + 안정 운영</text>
</svg>