<svg width="320" height="192" viewBox="0 0 320 192" xmlns="http://www.w3.org/2000/svg">
  <!-- Background -->
  <defs>
    <linearGradient id="bgGrad" x1="0%" y1="0%" x2="100%" y2="100%">
      <stop offset="0%" style="stop-color:#1e40af;stop-opacity:1" />
      <stop offset="100%" style="stop-color:#7c3aed;stop-opacity:1" />
    </linearGradient>
  </defs>
  
  <rect width="320" height="192" fill="url(#bgGrad)"/>
  
  <!-- Overlay -->
  <rect width="320" height="192" fill="rgba(0,0,0,0.3)"/>
  
  <!-- Main Content -->
  <rect x="20" y="20" width="280" height="152" rx="12" fill="rgba(255,255,255,0.95)"/>
  
  <!-- Naver Logo -->
  <rect x="40" y="40" width="40" height="40" rx="6" fill="#03c75a"/>
  <text x="60" y="66" text-anchor="middle" fill="white" font-family="Arial, sans-serif" font-size="18" font-weight="bold">N</text>
  
  <!-- TOP 5 Badge -->
  <circle cx="260" cy="60" r="20" fill="#dc2626"/>
  <text x="260" y="58" text-anchor="middle" fill="white" font-family="Arial, sans-serif" font-size="10" font-weight="bold">TOP</text>
  <text x="260" y="68" text-anchor="middle" fill="white" font-family="Arial, sans-serif" font-size="12" font-weight="bold">5</text>
  
  <!-- Title -->
  <text x="40" y="110" font-family="Arial, sans-serif" font-size="16" font-weight="bold" fill="#1e293b">네이버 블로그 업로드</text>
  <text x="40" y="130" font-family="Arial, sans-serif" font-size="14" font-weight="600" fill="#475569">프로그램 추천 TOP 5</text>
  <text x="40" y="150" font-family="Arial, sans-serif" font-size="12" fill="#64748b">2024년 최신 비교 분석</text>
  
  <!-- Programs Icons -->
  <rect x="100" y="40" width="12" height="12" rx="2" fill="#f59e0b"/>
  <rect x="115" y="40" width="12" height="12" rx="2" fill="#ef4444"/>
  <rect x="130" y="40" width="12" height="12" rx="2" fill="#8b5cf6"/>
  <rect x="145" y="40" width="12" height="12" rx="2" fill="#10b981"/>
  <rect x="160" y="40" width="12" height="12" rx="2" fill="#3b82f6"/>
</svg>