<svg width="1200" height="630" viewBox="0 0 1200 630" xmlns="http://www.w3.org/2000/svg">
  <!-- Background Gradient -->
  <defs>
    <linearGradient id="bgGrad" x1="0%" y1="0%" x2="100%" y2="100%">
      <stop offset="0%" style="stop-color:#1e40af;stop-opacity:1" />
      <stop offset="100%" style="stop-color:#7c3aed;stop-opacity:1" />
    </linearGradient>
    <linearGradient id="cardGrad" x1="0%" y1="0%" x2="100%" y2="100%">
      <stop offset="0%" style="stop-color:#ffffff;stop-opacity:0.95" />
      <stop offset="100%" style="stop-color:#f8fafc;stop-opacity:0.9" />
    </linearGradient>
  </defs>
  
  <!-- Background -->
  <rect width="1200" height="630" fill="url(#bgGrad)"/>
  
  <!-- Decorative Elements -->
  <circle cx="100" cy="100" r="40" fill="#ffffff" opacity="0.1"/>
  <circle cx="1100" cy="500" r="60" fill="#ffffff" opacity="0.08"/>
  <circle cx="200" cy="550" r="25" fill="#ffffff" opacity="0.12"/>
  
  <!-- Main Content Card -->
  <rect x="60" y="80" width="1080" height="470" rx="20" fill="url(#cardGrad)" stroke="#e2e8f0" stroke-width="2"/>
  
  <!-- Naver Icon -->
  <rect x="150" y="160" width="80" height="80" rx="8" fill="#03c75a"/>
  <text x="190" y="210" text-anchor="middle" fill="white" font-family="Arial, sans-serif" font-size="24" font-weight="bold">N</text>
  
  <!-- Upload Icon -->
  <rect x="280" y="180" width="40" height="40" rx="4" fill="#3b82f6"/>
  <path d="M 295 200 L 305 190 L 305 195 L 315 195 L 315 205 L 305 205 L 305 210 Z" fill="white"/>
  
  <!-- Programs Grid -->
  <rect x="360" y="160" width="30" height="30" rx="4" fill="#f59e0b"/>
  <rect x="400" y="160" width="30" height="30" rx="4" fill="#ef4444"/>
  <rect x="440" y="160" width="30" height="30" rx="4" fill="#8b5cf6"/>
  <rect x="360" y="200" width="30" height="30" rx="4" fill="#10b981"/>
  <rect x="400" y="200" width="30" height="30" rx="4" fill="#3b82f6"/>
  
  <!-- TOP 5 Badge -->
  <circle cx="520" cy="200" r="35" fill="#dc2626"/>
  <text x="520" y="195" text-anchor="middle" fill="white" font-family="Arial, sans-serif" font-size="14" font-weight="bold">TOP</text>
  <text x="520" y="210" text-anchor="middle" fill="white" font-family="Arial, sans-serif" font-size="16" font-weight="bold">5</text>
  
  <!-- Title -->
  <text x="600" y="140" font-family="Arial, sans-serif" font-size="38" font-weight="bold" fill="#1e293b">네이버 블로그 업로드 프로그램</text>
  <text x="600" y="190" font-family="Arial, sans-serif" font-size="32" font-weight="600" fill="#475569">추천 TOP 5 (2024년 최신)</text>
  
  <!-- Features -->
  <circle cx="600" cy="260" r="4" fill="#22c55e"/>
  <text x="620" y="268" font-family="Arial, sans-serif" font-size="20" fill="#374151">5개 프로그램 비교 분석</text>
  
  <circle cx="600" cy="290" r="4" fill="#22c55e"/>
  <text x="620" y="298" font-family="Arial, sans-serif" font-size="20" fill="#374151">실제 사용 후기 포함</text>
  
  <circle cx="600" cy="320" r="4" fill="#22c55e"/>
  <text x="620" y="328" font-family="Arial, sans-serif" font-size="20" fill="#374151">2024년 최신 업데이트</text>
  
  <!-- Blog Pro Badge -->
  <rect x="950" y="480" width="150" height="50" rx="25" fill="#1e40af"/>
  <text x="1025" y="510" text-anchor="middle" font-family="Arial, sans-serif" font-size="18" font-weight="bold" fill="white">Blog Pro</text>
  
  <!-- Performance Stats -->
  <rect x="600" y="380" width="480" height="80" rx="10" fill="#f1f5f9" stroke="#e2e8f0"/>
  <text x="620" y="405" font-family="Arial, sans-serif" font-size="16" font-weight="600" fill="#64748b">2024년 최신 비교 분석</text>
  <text x="620" y="430" font-family="Arial, sans-serif" font-size="24" font-weight="bold" fill="#1e40af">5개 프로그램 완전 분석</text>
  <text x="620" y="450" font-family="Arial, sans-serif" font-size="18" fill="#475569">실제 후기 + 가격 비교 포함</text>
</svg>